<svg width="173" height="27" viewBox="0 0 173 27" fill="none" xmlns="http://www.w3.org/2000/svg">
<path d="M6.44634 21.2509C5.36834 21.2509 4.41634 21.0689 3.59034 20.7049C2.76434 20.3269 2.11334 19.7949 1.63734 19.1089C1.16134 18.4089 0.916344 17.5619 0.902344 16.5679H3.73734C3.76534 17.2539 4.01034 17.8349 4.47234 18.3109C4.94834 18.7729 5.59934 19.0039 6.42534 19.0039C7.13934 19.0039 7.70634 18.8359 8.12634 18.4999C8.54634 18.1499 8.75634 17.6879 8.75634 17.1139C8.75634 16.5119 8.56734 16.0429 8.18934 15.7069C7.82534 15.3709 7.33534 15.0979 6.71934 14.8879C6.10334 14.6779 5.44534 14.4539 4.74534 14.2159C3.61134 13.8239 2.74334 13.3199 2.14134 12.7039C1.55334 12.0879 1.25934 11.2689 1.25934 10.2469C1.24534 9.37888 1.44834 8.63688 1.86834 8.02088C2.30234 7.39088 2.89034 6.90788 3.63234 6.57188C4.37434 6.22188 5.22834 6.04688 6.19434 6.04688C7.17434 6.04688 8.03534 6.22188 8.77734 6.57188C9.53334 6.92188 10.1213 7.41188 10.5413 8.04188C10.9753 8.67188 11.2063 9.42088 11.2343 10.2889H8.35734C8.34334 9.77088 8.14034 9.31588 7.74834 8.92388C7.37034 8.51788 6.83834 8.31488 6.15234 8.31488C5.56434 8.30088 5.06734 8.44788 4.66134 8.75588C4.26934 9.04988 4.07334 9.48388 4.07334 10.0579C4.07334 10.5479 4.22734 10.9399 4.53534 11.2339C4.84334 11.5139 5.26334 11.7519 5.79534 11.9479C6.32734 12.1439 6.93634 12.3539 7.62234 12.5779C8.35034 12.8299 9.01534 13.1239 9.61734 13.4599C10.2193 13.7959 10.7023 14.2439 11.0663 14.8039C11.4303 15.3499 11.6123 16.0569 11.6123 16.9249C11.6123 17.6949 11.4163 18.4089 11.0243 19.0669C10.6323 19.7249 10.0513 20.2569 9.28134 20.6629C8.51134 21.0549 7.56634 21.2509 6.44634 21.2509ZM13.9576 20.9989V6.29888H16.6456V12.4099H23.2396V6.29888H25.9276V20.9989H23.2396V14.5939H16.6456V20.9989H13.9576ZM28.7847 20.9989V6.29888H31.4727V20.9989H28.7847ZM38.5848 20.9989L33.2088 6.29888H36.0858L40.2438 18.2479L44.4228 6.29888H47.2578L41.8818 20.9989H38.5848ZM46.1942 20.9989L51.5702 6.29888H54.5942L59.9702 20.9989H57.1142L55.9382 17.5969H50.2052L49.0082 20.9989H46.1942ZM50.9402 15.4969H55.2032L53.0612 9.38588L50.9402 15.4969ZM61.8638 20.9989V6.29888H65.0558L69.7388 15.6229L74.3588 6.29888H77.5508V20.9989H74.8628V10.8559L70.7678 18.8989H68.6468L64.5518 10.8559V20.9989H61.8638ZM88.8298 20.9989V8.46188H84.5458V6.29888H95.8228V8.46188H91.5178V20.9989H88.8298ZM95.3104 20.9989L100.686 6.29888H103.71L109.086 20.9989H106.23L105.054 17.5969H99.3214L98.1244 20.9989H95.3104ZM100.056 15.4969H104.319L102.177 9.38588L100.056 15.4969ZM110.98 20.9989V6.29888H113.668L120.577 16.6519V6.29888H123.265V20.9989H120.577L113.668 10.6669V20.9989H110.98ZM129.097 20.9989L125.212 6.29888H128.089L130.735 17.9959L133.843 6.29888H136.804L139.828 17.9959L142.474 6.29888H145.372L141.382 20.9989H138.19L135.271 10.0999L132.268 20.9989H129.097ZM144.898 20.9989L150.274 6.29888H153.298L158.674 20.9989H155.818L154.642 17.5969H148.909L147.712 20.9989H144.898ZM149.644 15.4969H153.907L151.765 9.38588L149.644 15.4969ZM160.568 20.9989V6.29888H165.965C167.141 6.29888 168.107 6.50188 168.863 6.90788C169.633 7.29988 170.207 7.83888 170.585 8.52488C170.963 9.19688 171.152 9.94587 171.152 10.7719C171.152 11.6679 170.914 12.4869 170.438 13.2289C169.976 13.9709 169.248 14.5099 168.254 14.8459L171.299 20.9989H168.212L165.482 15.2029H163.256V20.9989H160.568ZM163.256 13.2289H165.797C166.693 13.2289 167.351 13.0119 167.771 12.5779C168.191 12.1439 168.401 11.5699 168.401 10.8559C168.401 10.1559 168.191 9.59588 167.771 9.17588C167.365 8.75588 166.7 8.54588 165.776 8.54588H163.256V13.2289Z" fill="white"/>
<path d="M54 15.5H63V17.6H54V15.5Z" fill="white"/>
<path d="M76 15.5H90V17.6H76V15.5Z" fill="white"/>
<path d="M104 15.5H113V17.6H104V15.5Z" fill="white"/>
<path d="M141 15.5H150V17.6H141V15.5Z" fill="white"/>
</svg>
